# xmcd
#
# Track frame offsets: 
#        150
#        12281
#        42003
#        82353
#        121594
#        166278
#        184042
#        249689
#        266279
#        274980
#        280307
#        297947
#        311935
#        334307
#
# Disc length: 4785 seconds
#
# Revision: 0
# Processed by: cddbd v1.5.2PL0 Copyright (c) Steve Scherf et al.
# Submitted via: ExactAudioCopy v0.95b4
#
DISCID=d012af0e
DTITLE=The Beatles  - AB  Road - Complete Purple Chick Set v1.1 Jan.25
DTITLE=Various Artist - D2  FLAC
DYEAR=1900
DGENRE=
TTITLE0=Dialogue
TTITLE1=On The Road Again 25.15
TTITLE2=Unknown 25.16
TTITLE3=Instrumental 25.17
TTITLE4=I Lost My Little Girl 25.18
TTITLE5=Two Of Us 25.19
TTITLE6=Two Of Us 25.20
TTITLE7=Two Of Us 25.21
TTITLE8=Two Of Us 25.22
TTITLE9=Bye Bye Love 25.23
TTITLE10=Two Of Us 25.24
TTITLE11=Unknown 25.25
TTITLE12=Two Of Us 25.24P
TTITLE13=Two Of Us 25.24P
EXTD=
EXTT0=
EXTT1=
EXTT2=
EXTT3=
EXTT4=
EXTT5=
EXTT6=
EXTT7=
EXTT8=
EXTT9=
EXTT10=
EXTT11=
EXTT12=
EXTT13=
PLAYORDER=
